<?xml version="1.0" encoding="utf-8"?>
<!-- Generator: Adobe Illustrator 26.1.0, SVG Export Plug-In . SVG Version: 6.00 Build 0)  -->
<svg version="1.1" id="Capa_1" xmlns="http://www.w3.org/2000/svg" xmlns:xlink="http://www.w3.org/1999/xlink" x="0px" y="0px"
	 viewBox="0 0 273 174" style="enable-background:new 0 0 273 174;" xml:space="preserve">
<style type="text/css">
	.st0{enable-background:new    ;}
	.st1{fill:#FCFCFC;}
	.st2{fill:#F2B984;}
	.st3{fill:#EBA667;}
	.st4{fill:#F07D9E;}
	.st5{fill:#EE5181;}
	.st6{fill:#EC3F78;}
	.st7{fill:#EE6A9B;}
	.st8{fill:#8FC6DA;}
	.st9{fill:#FFD300;}
	.st10{fill:#E62728;}
</style>
<g>
	<g class="st0">
		<path class="st1" d="M17.8,142.8c2.8,0,4.9,0.9,6.4,2.7c1.5,1.8,2.2,4.4,2.2,8c0,3.5-0.7,6.2-2.2,8c-1.5,1.8-3.6,2.7-6.4,2.7
			c-2.8,0-5-1.1-6.5-3.4l-0.7,2.9H4.4v-28.1h7.7v9.5C13.5,143.5,15.5,142.8,17.8,142.8z M12.9,149.7c-0.6,0.8-0.9,1.9-0.9,3.2v1.3
			c0,1.3,0.3,2.3,0.9,3.1c0.6,0.8,1.4,1.2,2.6,1.2c2.2,0,3.3-1.3,3.3-3.9v-2.1c0-2.7-1.1-4-3.3-4C14.3,148.4,13.4,148.9,12.9,149.7z
			"/>
		<path class="st1" d="M30.4,163.7v-28.1h7.7v28.1H30.4z"/>
		<path class="st1" d="M43.3,140.8v-5.2H51v5.2H43.3z M43.3,163.7v-20.4H51v20.4H43.3z"/>
		<path class="st1" d="M72.6,144.4c1.9,1.1,2.8,2.7,2.8,5h-7.2c0-0.7-0.3-1.3-1-1.6c-0.5-0.3-1-0.4-1.7-0.4c-1.9,0-2.8,0.4-2.8,1.3
			c0,0.5,0.3,0.8,1,1c0.6,0.2,1.7,0.4,3.2,0.7c1.8,0.3,3.3,0.6,4.5,0.9c1.2,0.3,2.3,1,3.2,1.9c0.9,0.9,1.4,2.1,1.4,3.7
			c0,2.6-1,4.5-2.9,5.6c-1.9,1.1-4.5,1.7-7.6,1.7c-1.8,0-3.5-0.3-5.1-0.8c-1.6-0.5-2.9-1.3-3.9-2.3s-1.5-2.4-1.5-4H62v0.2
			c0,0.9,0.4,1.5,1.1,1.8c0.7,0.3,1.5,0.5,2.3,0.5c2.1,0,3.2-0.5,3.2-1.5c0-0.5-0.3-0.9-1-1.1c-0.7-0.2-1.8-0.5-3.3-0.7
			c-1.8-0.3-3.3-0.6-4.5-1c-1.2-0.4-2.2-1-3.1-1.8c-0.9-0.9-1.3-2.1-1.3-3.6c0-2.5,0.9-4.3,2.8-5.3c1.9-1.1,4.4-1.6,7.4-1.6
			C68.4,142.8,70.7,143.3,72.6,144.4z"/>
		<path class="st1" d="M96.3,144.4c1.9,1.1,2.8,2.7,2.8,5H92c0-0.7-0.3-1.3-1-1.6c-0.5-0.3-1-0.4-1.7-0.4c-1.9,0-2.8,0.4-2.8,1.3
			c0,0.5,0.3,0.8,1,1c0.6,0.2,1.7,0.4,3.2,0.7c1.8,0.3,3.3,0.6,4.5,0.9c1.2,0.3,2.3,1,3.2,1.9c0.9,0.9,1.4,2.1,1.4,3.7
			c0,2.6-1,4.5-2.9,5.6c-1.9,1.1-4.5,1.7-7.6,1.7c-1.8,0-3.5-0.3-5.1-0.8c-1.6-0.5-2.9-1.3-3.9-2.3s-1.5-2.4-1.5-4h7.2v0.2
			c0,0.9,0.4,1.5,1.1,1.8c0.7,0.3,1.5,0.5,2.3,0.5c2.1,0,3.2-0.5,3.2-1.5c0-0.5-0.3-0.9-1-1.1c-0.7-0.2-1.8-0.5-3.3-0.7
			c-1.8-0.3-3.3-0.6-4.5-1c-1.2-0.4-2.2-1-3.1-1.8c-0.9-0.9-1.3-2.1-1.3-3.6c0-2.5,0.9-4.3,2.8-5.3c1.9-1.1,4.4-1.6,7.4-1.6
			C92.1,142.8,94.4,143.3,96.3,144.4z"/>
		<path class="st1" d="M113.7,135.3c0.9,0.1,1.5,0.3,2.1,0.5v4.5H114c-0.8,0-1.4,0.2-1.7,0.5c-0.3,0.3-0.5,0.8-0.5,1.6v0.8h3.9v5.2
			h-3.9v15.2h-7.7v-15.2h-2.9v-5.2h2.9v-0.9c0-2.6,0.6-4.5,1.9-5.6c1.3-1.1,3.1-1.6,5.5-1.6C112.2,135.1,112.9,135.2,113.7,135.3z"
			/>
		<path class="st1" d="M133.1,163.7l-0.5-3.1c-0.8,1.1-1.9,2-3.2,2.6c-1.3,0.6-2.7,0.9-4.1,0.9c-2.4,0-4.2-0.7-5.3-2
			c-1.2-1.3-1.8-3.2-1.8-5.7v-13.2h7.7v12.3c0,0.9,0.2,1.6,0.7,2.1c0.5,0.5,1.1,0.8,1.9,0.8c1,0,1.7-0.3,2.3-0.9
			c0.6-0.6,0.9-1.4,0.9-2.3v-12h7.7v20.4H133.1z"/>
		<path class="st1" d="M144.4,163.7v-28.1h7.7v28.1H144.4z"/>
		<path class="st1" d="M183.4,142.8c2.8,0,4.9,0.9,6.4,2.7c1.5,1.8,2.2,4.4,2.2,8c0,3.5-0.7,6.2-2.2,8c-1.5,1.8-3.6,2.7-6.4,2.7
			c-2.8,0-5-1.1-6.5-3.4l-0.7,2.9H170v-28.1h7.7v9.5C179.1,143.5,181.1,142.8,183.4,142.8z M178.5,149.7c-0.6,0.8-0.9,1.9-0.9,3.2
			v1.3c0,1.3,0.3,2.3,0.9,3.1c0.6,0.8,1.4,1.2,2.6,1.2c2.2,0,3.3-1.3,3.3-3.9v-2.1c0-2.7-1.1-4-3.3-4
			C179.9,148.4,179,148.9,178.5,149.7z"/>
		<path class="st1" d="M196,140.8v-5.2h7.7v5.2H196z M196,163.7v-20.4h7.7v20.4H196z"/>
		<path class="st1" d="M222.3,143.2v5.2h-4.3v7.8c0,0.9,0.2,1.6,0.5,2c0.3,0.4,0.9,0.6,1.7,0.6h2.2v4.5c-0.6,0.2-1.4,0.4-2.4,0.5
			c-1,0.1-1.8,0.2-2.6,0.2c-2.3,0-4-0.4-5.2-1.2c-1.2-0.8-1.8-2.2-1.8-4.2v-10.2h-2.9v-5.2h3.2l1.7-6.2h5.7v6.2H222.3z"/>
		<path class="st1" d="M245,145.4c2,1.8,3,4.4,3,8.1v1.3h-15.3c0,1.5,0.3,2.6,1,3.3s1.7,1.1,3.1,1.1c1.3,0,2.2-0.3,2.8-0.8
			s0.9-1.3,0.9-2.2h7.5c0,2.5-0.9,4.4-2.8,5.8c-1.9,1.4-4.6,2.1-8.2,2.1c-3.8,0-6.7-0.9-8.8-2.7c-2.1-1.8-3.1-4.4-3.1-8
			c0-3.5,1-6.2,3.1-8c2-1.8,4.9-2.7,8.4-2.7C240.2,142.8,243,143.6,245,145.4z M232.7,151.1h7.5c0-1.1-0.3-1.9-0.9-2.5
			c-0.6-0.6-1.5-0.9-2.5-0.9C234.3,147.7,232.9,148.8,232.7,151.1z"/>
		<path class="st1" d="M268.3,144.4c1.9,1.1,2.8,2.7,2.8,5H264c0-0.7-0.3-1.3-1-1.6c-0.5-0.3-1-0.4-1.7-0.4c-1.9,0-2.8,0.4-2.8,1.3
			c0,0.5,0.3,0.8,1,1c0.6,0.2,1.7,0.4,3.2,0.7c1.8,0.3,3.3,0.6,4.5,0.9s2.3,1,3.2,1.9c0.9,0.9,1.4,2.1,1.4,3.7c0,2.6-1,4.5-2.9,5.6
			c-1.9,1.1-4.5,1.7-7.6,1.7c-1.8,0-3.5-0.3-5.1-0.8c-1.6-0.5-2.9-1.3-3.9-2.3s-1.5-2.4-1.5-4h7.2v0.2c0,0.9,0.4,1.5,1.1,1.8
			c0.7,0.3,1.5,0.5,2.3,0.5c2.1,0,3.2-0.5,3.2-1.5c0-0.5-0.3-0.9-1-1.1c-0.7-0.2-1.8-0.5-3.3-0.7c-1.8-0.3-3.3-0.6-4.5-1
			c-1.2-0.4-2.2-1-3.1-1.8c-0.9-0.9-1.3-2.1-1.3-3.6c0-2.5,0.9-4.3,2.8-5.3c1.9-1.1,4.4-1.6,7.4-1.6
			C264.1,142.8,266.4,143.3,268.3,144.4z"/>
	</g>
	<g>
		<g id="XMLID_00000100358087873906919980000009880567035696417980_">
			<path id="XMLID_00000089554613329375677900000010912202008521455289_" class="st2" d="M189.1,50.5c0-0.2-0.1-0.4-0.1-0.6
				c-0.3,0.1-0.6,0.1-0.9,0.2c-1.6,0.3-3.4,0.1-5.1-0.4c-5.6-1.9-11-8-9.1-13.6c0.3-0.8-0.6-1.5-0.1-2.2c-1.4,0.1-2.8,0-4.2-0.5
				c-3.3-1.1-5.7-3.7-6.7-6.9c-0.4-1.4-0.6-2.9-0.4-4.5c-2,2.1-2.1,3.4-4.9,3.8c-1.7,0.2-3.5,0.1-5.2-0.5c-6.3-2.1-9.5-9.2-7.3-15.9
				c0.2-0.5,0.4-1,0.6-1.4c0,0,0,0,0-0.1c-26.2-5.3-51.6,9.5-60.4,35.5c-9.5,28.2,5.6,58.7,33.7,68.3c4.1,1.4,8.3,2.3,12.5,2.6
				c24.2,2.2,47.7-12.3,55.8-36.3C190.4,68.8,190.9,59.4,189.1,50.5z M153.3,66.4c-2.5,7.3-9.2,12-16.5,12.2
				c-2.1,0.1-4.2-0.2-6.3-0.9c-9.4-3.2-14.4-13.4-11.2-22.8c3.2-9.4,13.4-14.4,22.7-11.2c0,0,0,0,0,0
				C151.4,46.9,156.4,57,153.3,66.4z"/>
		</g>
		<path class="st3" d="M189.7,53.8c-15.3,23.1-40.2,48.7-77.6,54.9c2.2,1.1,4.5,2.1,7,2.9c4.1,1.4,8.3,2.3,12.5,2.6
			c24.2,2.2,47.7-12.3,55.8-36.3C190,69.9,190.7,61.7,189.7,53.8z"/>
		<g id="XMLID_00000094615273603517612680000017437970846152785848_">
			<path id="XMLID_00000006693459407405199740000016315377555168072068_" class="st4" d="M189.6,44.4c-0.3,0.1-0.6,0.1-0.9,0.2
				c0.3,0.2,0.7,0.3,1,0.5C189.6,44.8,189.6,44.6,189.6,44.4z"/>
			<g id="XMLID_00000099642653324226333340000002923868615286368437_">
				<path id="XMLID_00000007410693262090860860000007522172157876456639_" class="st5" d="M189.7,45.1c-0.4-0.1-0.7-0.3-1-0.5
					c-1.6,0.3-3.4,0.1-5.1-0.4c-5.6-1.9-8.6-8-6.7-13.6c0.3-0.8,0.6-1.5,1.1-2.2c-1.4,0.1-2.8,0-4.2-0.5c-3.3-1.1-5.7-3.7-6.7-6.9
					c-0.4-1.4-0.6-2.9-0.4-4.5c-2,2.1-4.5,3.4-7.3,3.8c-1.7,0.2-3.5,0.1-5.2-0.5c-6.3-2.1-9.5-9.2-7.3-15.9c0.2-0.5,0.4-1,0.6-1.4
					c-24-1.9-47.2,12.5-55.3,36.4c-9.5,28.2,5.6,58.7,33.7,68.3c2,0.7,48,10.9,61.9-34.7C190.6,63.2,191.4,53.9,189.7,45.1z
					 M153.8,61c-2.5,7.3-9.2,12-16.5,12.2c-2.1,0.1-4.2-0.2-6.3-0.9c-9.4-3.2-14.4-13.4-11.2-22.8C123,40,133.2,35,142.6,38.2
					c0,0,0,0,0,0C152,41.4,157,51.6,153.8,61z"/>
			</g>
		</g>
		<path id="XMLID_00000109027150856819422630000010413138096669142428_" class="st4" d="M189.6,44.4c-0.3,0.1-0.6,0.1-0.9,0.2
			c0.3,0.2,0.7,0.3,1,0.5C189.6,44.8,189.6,44.6,189.6,44.4z"/>
		<path class="st6" d="M190.5,52.5c-13.6,21-35.3,44.5-67.3,53.7c0.9,0.3,1.7,0.7,2.6,1c2,0.7,48,10.9,61.9-34.7
			C189.8,65.8,190.8,59.1,190.5,52.5z"/>
		<path class="st7" d="M142.6,13V7.7c-0.4,0-0.8,0-1.1,0c-26,0-47.1,21.1-47.1,47.1c0,10.8,3.6,20.8,9.8,28.7
			c-4-6.9-6.2-14.9-6.2-23.5C97.8,34.8,117.7,14.2,142.6,13z"/>
		<rect x="109.1" y="68" transform="matrix(0.9237 -0.3832 0.3832 0.9237 -19.3258 47.9049)" class="st8" width="2.9" height="9"/>
		
			<rect x="157.9" y="23.1" transform="matrix(8.700071e-02 -0.9962 0.9962 8.700071e-02 117.989 183.985)" class="st8" width="2.9" height="9"/>
		<rect x="101.5" y="44.3" transform="matrix(0.8463 -0.5327 0.5327 0.8463 -8.0965 63.5123)" class="st9" width="9" height="2.9"/>
		<rect x="173.1" y="68" transform="matrix(0.3894 -0.9211 0.9211 0.3894 39.8473 205.0216)" class="st8" width="2.9" height="9"/>
		<rect x="127.8" y="17.9" transform="matrix(0.4841 -0.875 0.875 0.4841 47.1468 124.6525)" class="st10" width="2.9" height="9"/>
		
			<rect x="156.8" y="84.6" transform="matrix(0.7236 -0.6903 0.6903 0.7236 -17.6983 133.8721)" class="st9" width="2.9" height="9"/>
		
			<rect x="124.8" y="88.2" transform="matrix(0.8463 -0.5327 0.5327 0.8463 -27.8878 82.6513)" class="st10" width="9" height="2.9"/>
		<rect x="167.6" y="50.4" transform="matrix(0.8463 -0.5327 0.5327 0.8463 -1.152 99.6573)" class="st9" width="9" height="2.9"/>
	</g>
</g>
</svg>
