<?xml version="1.0" encoding="utf-8"?>
<!-- Generator: Adobe Illustrator 26.1.0, SVG Export Plug-In . SVG Version: 6.00 Build 0)  -->
<svg version="1.1" id="Capa_1" xmlns="http://www.w3.org/2000/svg" xmlns:xlink="http://www.w3.org/1999/xlink" x="0px" y="0px"
	 viewBox="0 0 320 53" style="enable-background:new 0 0 320 53;" xml:space="preserve">
<style type="text/css">
	.st0{fill:#4C2519;}
	.st1{font-family:'DMSerifDisplay-Regular';}
	.st2{font-size:48.1884px;}
	.st3{fill:#F2B984;}
	.st4{fill:#EBA667;}
	.st5{fill:#F07D9E;}
	.st6{fill:#EE5181;}
	.st7{fill:#EC3F78;}
	.st8{fill:#EE6A9B;}
	.st9{fill:#8FC6DA;}
	.st10{fill:#FFD300;}
	.st11{fill:#E62728;}
</style>
<text transform="matrix(1 0 0 1 49.0166 43.4263)" class="st0 st1 st2">blissful bites</text>
<g>
	<g id="XMLID_12660_">
		<path id="XMLID_12661_" class="st3" d="M47.57,23.34c-0.02-0.09-0.03-0.18-0.05-0.27c-0.13,0.03-0.26,0.06-0.39,0.08
			c-0.69,0.11-1.42,0.06-2.12-0.18c-2.34-0.79-4.61-3.35-3.8-5.72c0.11-0.33-0.24-0.64-0.07-0.93c-0.59,0.05-1.19-0.02-1.78-0.22
			c-1.4-0.47-2.4-1.57-2.82-2.88c-0.19-0.59-0.26-1.23-0.19-1.87c-0.83,0.87-0.9,1.42-2.04,1.58c-0.72,0.1-1.46,0.04-2.18-0.21
			c-2.63-0.89-4-3.88-3.05-6.67c0.07-0.21,0.15-0.4,0.24-0.59c0-0.01,0.01-0.02,0.01-0.03C18.33,3.19,7.64,9.43,3.95,20.33
			C-0.06,32.16,6.28,45,18.1,49.01c1.73,0.59,3.49,0.95,5.23,1.11c10.17,0.92,20.02-5.17,23.44-15.27
			C48.08,31,48.29,27.06,47.57,23.34z M32.5,30.01c-1.04,3.07-3.86,5.03-6.91,5.12c-0.87,0.03-1.77-0.1-2.64-0.4
			c-3.94-1.34-6.06-5.61-4.72-9.56c1.34-3.94,5.61-6.06,9.56-4.72c0.01,0,0.01,0,0.02,0.01C31.73,21.8,33.83,26.07,32.5,30.01z"/>
	</g>
	<path class="st4" d="M47.79,24.72c-6.41,9.69-16.87,20.43-32.61,23.06c0.93,0.47,1.91,0.88,2.92,1.22
		c1.73,0.59,3.49,0.95,5.23,1.11c10.17,0.92,20.02-5.17,23.44-15.27C47.92,31.48,48.22,28.03,47.79,24.72z"/>
	<g id="XMLID_12651_">
		<path id="XMLID_12658_" class="st5" d="M47.74,20.78c-0.13,0.03-0.26,0.06-0.39,0.08c0.14,0.07,0.29,0.13,0.44,0.19
			C47.78,20.96,47.76,20.87,47.74,20.78z"/>
		<g id="XMLID_12654_">
			<path id="XMLID_12655_" class="st6" d="M47.8,21.05c-0.15-0.06-0.3-0.12-0.44-0.19c-0.69,0.11-1.42,0.06-2.12-0.18
				c-2.34-0.79-3.6-3.35-2.8-5.72c0.11-0.33,0.26-0.64,0.44-0.93c-0.59,0.05-1.19-0.02-1.78-0.22c-1.4-0.47-2.4-1.57-2.82-2.88
				c-0.19-0.59-0.26-1.23-0.19-1.87c-0.83,0.87-1.91,1.42-3.05,1.58c-0.72,0.1-1.46,0.04-2.18-0.21c-2.63-0.89-4-3.88-3.05-6.67
				c0.07-0.21,0.15-0.4,0.24-0.59C19.96,2.35,10.23,8.43,6.83,18.45C2.82,30.28,9.16,43.11,20.99,47.12
				c0.85,0.29,20.17,4.59,26.01-14.56C48.19,28.68,48.51,24.77,47.8,21.05z M32.73,27.72c-1.04,3.07-3.86,5.03-6.91,5.12
				c-0.87,0.03-1.77-0.1-2.64-0.4c-3.94-1.34-6.06-5.61-4.72-9.56c1.34-3.94,5.61-6.06,9.56-4.72c0.01,0,0.01,0,0.02,0.01
				C31.95,19.51,34.06,23.79,32.73,27.72z"/>
		</g>
	</g>
	<path id="XMLID_20_" class="st5" d="M47.74,20.78c-0.13,0.03-0.26,0.06-0.39,0.08c0.14,0.07,0.29,0.13,0.44,0.19
		C47.78,20.96,47.76,20.87,47.74,20.78z"/>
	<path class="st7" d="M48.15,24.17c-5.73,8.84-14.83,18.69-28.26,22.55c0.36,0.14,0.73,0.28,1.1,0.4
		c0.85,0.29,20.17,4.59,26.01-14.56C47.86,29.75,48.26,26.93,48.15,24.17z"/>
	<path class="st8" d="M28,7.59V5.37c-0.16,0-0.32-0.01-0.49-0.01c-10.92,0-19.77,8.85-19.77,19.77c0,4.54,1.53,8.72,4.1,12.05
		c-1.67-2.9-2.63-6.27-2.63-9.85C9.21,16.74,17.54,8.1,28,7.59z"/>
	
		<rect x="13.96" y="30.68" transform="matrix(0.9237 -0.3832 0.3832 0.9237 -11.3634 8.0692)" class="st9" width="1.22" height="3.76"/>
	
		<rect x="34.45" y="11.84" transform="matrix(0.087 -0.9962 0.9962 0.087 18.3444 47.4593)" class="st9" width="1.22" height="3.76"/>
	
		<rect x="10.77" y="20.75" transform="matrix(0.8463 -0.5327 0.5327 0.8463 -9.4309 10.0232)" class="st10" width="3.76" height="1.22"/>
	
		<rect x="40.84" y="30.68" transform="matrix(0.3894 -0.9211 0.9211 0.3894 -4.6822 58.0534)" class="st9" width="1.22" height="3.76"/>
	
		<rect x="21.82" y="9.62" transform="matrix(0.4841 -0.875 0.875 0.4841 1.5032 25.5618)" class="st11" width="1.22" height="3.76"/>
	
		<rect x="34" y="37.64" transform="matrix(0.7236 -0.6903 0.6903 0.7236 -17.7106 34.8132)" class="st10" width="1.22" height="3.76"/>
	
		<rect x="20.55" y="39.17" transform="matrix(0.8463 -0.5327 0.5327 0.8463 -17.744 18.061)" class="st11" width="3.76" height="1.22"/>
	
		<rect x="38.54" y="23.28" transform="matrix(0.8463 -0.5327 0.5327 0.8463 -6.5143 25.2046)" class="st10" width="3.76" height="1.22"/>
</g>
</svg>
