<?xml version="1.0" encoding="utf-8"?>
<!-- Generator: Adobe Illustrator 26.1.0, SVG Export Plug-In . SVG Version: 6.00 Build 0)  -->
<svg version="1.1" id="Capa_1" xmlns="http://www.w3.org/2000/svg" xmlns:xlink="http://www.w3.org/1999/xlink" x="0px" y="0px"
	 viewBox="0 0 273 174" style="enable-background:new 0 0 273 174;" xml:space="preserve">
<style type="text/css">
	.st0{fill:#F2B984;}
	.st1{fill:#EBA667;}
	.st2{fill:#F07D9E;}
	.st3{fill:#EE5181;}
	.st4{fill:#EC3F78;}
	.st5{fill:#EE6A9B;}
	.st6{fill:#8FC6DA;}
	.st7{fill:#FFD300;}
	.st8{fill:#E62728;}
	.st9{fill:#FCFCFC;}
	.st10{font-family:'DMSerifDisplay-Regular';}
	.st11{font-size:48.1884px;}
</style>
<g>
	<text transform="matrix(1 0 0 1 2.0081 173.1732)" class="st9 st10 st11">blissful bites</text>
	<g>
		<g id="XMLID_00000100358087873906919980000009880567035696417980_">
			<path id="XMLID_00000089554613329375677900000010912202008521455289_" class="st0" d="M189.14,50.51
				c-0.04-0.21-0.08-0.42-0.12-0.63c-0.3,0.08-0.61,0.14-0.92,0.19c-1.64,0.26-3.37,0.14-5.06-0.43
				c-5.58-1.89-10.97-7.99-9.06-13.61c0.27-0.79-0.58-1.54-0.15-2.22c-1.39,0.11-2.83-0.05-4.24-0.53
				c-3.32-1.13-5.72-3.74-6.72-6.86c-0.45-1.41-0.61-2.92-0.45-4.45c-1.97,2.06-2.14,3.39-4.86,3.76c-1.7,0.23-3.47,0.08-5.18-0.5
				c-6.27-2.12-9.52-9.24-7.27-15.88c0.17-0.49,0.36-0.96,0.57-1.42c0.01-0.02,0.02-0.04,0.03-0.06
				c-26.17-5.31-51.63,9.54-60.43,35.5c-9.54,28.16,5.55,58.72,33.71,68.26c4.13,1.4,8.3,2.26,12.46,2.64
				c24.21,2.19,47.66-12.32,55.8-36.35C190.35,68.77,190.85,59.36,189.14,50.51z M153.26,66.4c-2.47,7.3-9.18,11.96-16.46,12.18
				c-2.08,0.06-4.21-0.24-6.29-0.94c-9.39-3.18-14.42-13.37-11.24-22.75c3.18-9.39,13.37-14.42,22.75-11.24
				c0.01,0,0.03,0.01,0.04,0.01C151.43,46.86,156.44,57.03,153.26,66.4z"/>
		</g>
		<path class="st1" d="M189.67,53.81c-15.26,23.08-40.16,48.65-77.64,54.9c2.22,1.11,4.54,2.09,6.96,2.91
			c4.13,1.4,8.3,2.26,12.46,2.64c24.21,2.19,47.66-12.32,55.8-36.35C189.97,69.9,190.69,61.68,189.67,53.81z"/>
		<g id="XMLID_00000094615273603517612680000017437970846152785848_">
			<path id="XMLID_00000006693459407405199740000016315377555168072068_" class="st2" d="M189.56,44.43
				c-0.3,0.08-0.61,0.14-0.92,0.19c0.34,0.17,0.68,0.31,1.04,0.45C189.64,44.85,189.6,44.64,189.56,44.43z"/>
			<g id="XMLID_00000099642653324226333340000002923868615286368437_">
				<path id="XMLID_00000007410693262090860860000007522172157876456639_" class="st3" d="M189.68,45.06
					c-0.36-0.13-0.71-0.28-1.04-0.45c-1.64,0.26-3.37,0.14-5.06-0.43c-5.58-1.89-8.56-7.99-6.66-13.61
					c0.27-0.79,0.62-1.54,1.05-2.22c-1.39,0.11-2.83-0.05-4.24-0.53c-3.32-1.13-5.72-3.74-6.72-6.86c-0.45-1.41-0.61-2.92-0.45-4.45
					c-1.97,2.06-4.54,3.39-7.27,3.76c-1.7,0.23-3.47,0.08-5.18-0.5c-6.27-2.12-9.52-9.24-7.27-15.88c0.17-0.49,0.36-0.96,0.57-1.42
					c-24.01-1.93-47.18,12.54-55.27,36.4c-9.54,28.16,5.55,58.72,33.71,68.26c2.03,0.69,48.01,10.92,61.93-34.67
					C190.61,63.23,191.39,53.92,189.68,45.06z M153.8,60.95c-2.47,7.3-9.18,11.96-16.46,12.18c-2.08,0.06-4.21-0.24-6.29-0.95
					c-9.39-3.18-14.42-13.37-11.24-22.75c3.18-9.39,13.37-14.42,22.75-11.24c0.01,0,0.03,0.01,0.04,0.01
					C151.97,41.41,156.98,51.58,153.8,60.95z"/>
			</g>
		</g>
		<path id="XMLID_00000109027150856819422630000010413138096669142428_" class="st2" d="M189.56,44.43
			c-0.3,0.08-0.61,0.14-0.92,0.19c0.34,0.17,0.68,0.31,1.04,0.45C189.64,44.85,189.6,44.64,189.56,44.43z"/>
		<path class="st4" d="M190.53,52.5c-13.64,21.04-35.31,44.51-67.28,53.67c0.86,0.34,1.73,0.66,2.61,0.96
			c2.03,0.69,48.01,10.92,61.93-34.67C189.83,65.78,190.79,59.06,190.53,52.5z"/>
		<path class="st5" d="M142.55,13.01V7.74c-0.38-0.01-0.77-0.02-1.15-0.02c-26,0-47.07,21.08-47.07,47.07
			c0,10.8,3.64,20.75,9.76,28.7c-3.98-6.91-6.25-14.92-6.25-23.46C97.83,34.82,117.65,14.24,142.55,13.01z"/>
		
			<rect x="109.13" y="67.98" transform="matrix(0.9237 -0.3832 0.3832 0.9237 -19.3267 47.905)" class="st6" width="2.9" height="8.96"/>
		
			<rect x="157.92" y="23.14" transform="matrix(0.087 -0.9962 0.9962 0.087 117.9908 183.9828)" class="st6" width="2.9" height="8.96"/>
		
			<rect x="101.54" y="44.34" transform="matrix(0.8463 -0.5327 0.5327 0.8463 -8.1009 63.5118)" class="st7" width="8.96" height="2.9"/>
		
			<rect x="173.11" y="67.98" transform="matrix(0.3894 -0.9211 0.9211 0.3894 39.839 205.0284)" class="st6" width="2.9" height="8.96"/>
		
			<rect x="127.84" y="17.86" transform="matrix(0.4841 -0.875 0.875 0.4841 47.1483 124.6573)" class="st8" width="2.9" height="8.96"/>
		
			<rect x="156.83" y="84.55" transform="matrix(0.7236 -0.6903 0.6903 0.7236 -17.7009 133.8706)" class="st7" width="2.9" height="8.96"/>
		
			<rect x="124.81" y="88.21" transform="matrix(0.8463 -0.5327 0.5327 0.8463 -27.8925 82.6477)" class="st8" width="8.96" height="2.9"/>
		
			<rect x="167.65" y="50.38" transform="matrix(0.8463 -0.5327 0.5327 0.8463 -1.1573 99.655)" class="st7" width="8.96" height="2.9"/>
	</g>
</g>
</svg>
