<?xml version="1.0" encoding="utf-8"?>
<!-- Generator: Adobe Illustrator 26.1.0, SVG Export Plug-In . SVG Version: 6.00 Build 0)  -->
<svg version="1.1" id="Capa_1" xmlns="http://www.w3.org/2000/svg" xmlns:xlink="http://www.w3.org/1999/xlink" x="0px" y="0px"
	 viewBox="0 0 440.2 84.8" style="enable-background:new 0 0 440.2 84.8;" xml:space="preserve">
<style type="text/css">
	.st0{fill:#FCFCFC;}
	.st1{fill:#F2B984;}
	.st2{fill:#EBA667;}
	.st3{fill:#F07D9E;}
	.st4{fill:#EE5181;}
	.st5{fill:#EC3F78;}
	.st6{fill:#EE6A9B;}
	.st7{fill:#8FC6DA;}
	.st8{fill:#FFD300;}
	.st9{fill:#E62728;}
</style>
<g>
	<path class="st0" d="M119.6,30.1c1.4,0.7,2.5,1.7,3.3,2.9c0.8,1.3,1.2,2.7,1.2,4.2c0,4.1-1.8,6.7-5.5,7.7v0.2
		c4.2,1,6.3,3.7,6.3,8.3c0,1.7-0.4,3.3-1.3,4.6s-2,2.4-3.5,3.1c-1.5,0.7-3.1,1.1-4.9,1.1H92.9V29.1H115
		C116.6,29.1,118.2,29.4,119.6,30.1z M103.5,42h7.3c0.7,0,1.3-0.2,1.8-0.7s0.7-1.1,0.7-1.9v-0.5c0-0.7-0.2-1.3-0.7-1.8
		s-1.1-0.7-1.7-0.7h-7.3V42H103.5z M103.5,54.5h8.1c0.7,0,1.3-0.2,1.8-0.7s0.7-1.1,0.7-1.9v-0.5c0-0.7-0.2-1.4-0.7-1.9
		c-0.5-0.4-1.1-0.7-1.8-0.7h-8.1C103.5,48.8,103.5,54.5,103.5,54.5z"/>
	<path class="st0" d="M130,62.2V27.3h9.6v34.9H130z"/>
	<path class="st0" d="M146.1,33.8v-6.5h9.6v6.5H146.1z M146.1,62.2V36.8h9.6v25.4C155.7,62.2,146.1,62.2,146.1,62.2z"/>
	<path class="st0" d="M182.5,38.2c2.4,1.3,3.5,3.4,3.5,6.2h-8.9c0-0.9-0.4-1.6-1.3-2c-0.6-0.3-1.3-0.5-2.2-0.5
		c-2.3,0-3.5,0.5-3.5,1.6c0,0.6,0.4,1,1.2,1.3s2.1,0.5,4,0.8c2.2,0.3,4.1,0.7,5.6,1.1c1.5,0.4,2.8,1.2,4,2.3
		c1.1,1.1,1.7,2.7,1.7,4.7c0,3.2-1.2,5.6-3.6,6.9c-2.4,1.4-5.6,2.1-9.5,2.1c-2.2,0-4.4-0.3-6.4-0.9c-2-0.6-3.6-1.6-4.9-2.9
		c-1.3-1.3-1.9-3-1.9-5h8.9v0.2c0,1.1,0.5,1.9,1.4,2.3c0.9,0.4,1.8,0.7,2.8,0.7c2.7,0,4-0.6,4-1.9c0-0.6-0.4-1.1-1.3-1.4
		c-0.8-0.3-2.2-0.6-4.1-0.9c-2.3-0.4-4.2-0.8-5.6-1.3c-1.5-0.4-2.7-1.2-3.8-2.3s-1.6-2.6-1.6-4.5c0-3.1,1.2-5.3,3.5-6.6
		c2.4-1.3,5.4-2,9.2-2C177.3,36.2,180.2,36.9,182.5,38.2z"/>
	<path class="st0" d="M212,38.2c2.4,1.3,3.5,3.4,3.5,6.2h-8.9c0-0.9-0.4-1.6-1.3-2c-0.6-0.3-1.3-0.5-2.2-0.5c-2.3,0-3.5,0.5-3.5,1.6
		c0,0.6,0.4,1,1.2,1.3s2.1,0.5,4,0.8c2.2,0.3,4.1,0.7,5.6,1.1c1.5,0.4,2.8,1.2,4,2.3c1.1,1.1,1.7,2.7,1.7,4.7c0,3.2-1.2,5.6-3.6,6.9
		c-2.4,1.4-5.6,2.1-9.5,2.1c-2.2,0-4.4-0.3-6.4-0.9c-2-0.6-3.6-1.6-4.9-2.9c-1.3-1.3-1.9-3-1.9-5h8.9v0.2c0,1.1,0.5,1.9,1.4,2.3
		c0.9,0.4,1.8,0.7,2.8,0.7c2.7,0,4-0.6,4-1.9c0-0.6-0.4-1.1-1.3-1.4c-0.8-0.3-2.2-0.6-4.1-0.9c-2.3-0.4-4.2-0.8-5.6-1.3
		c-1.5-0.4-2.7-1.2-3.8-2.3s-1.6-2.6-1.6-4.5c0-3.1,1.2-5.3,3.5-6.6c2.4-1.3,5.4-2,9.2-2C206.7,36.2,209.6,36.9,212,38.2z"/>
	<path class="st0" d="M233.7,27c1.1,0.2,1.9,0.4,2.6,0.6v5.6h-2.2c-1,0-1.7,0.2-2.1,0.6c-0.4,0.4-0.6,1-0.6,2v1h4.9v6.5h-5v18.9
		h-9.6V43.3h-3.6v-6.5h3.6v-1.1c0-3.3,0.8-5.6,2.4-7c1.6-1.4,3.9-2,6.9-2C231.7,26.7,232.6,26.8,233.7,27z"/>
	<path class="st0" d="M257.9,62.2l-0.6-3.9c-1,1.4-2.3,2.5-3.9,3.3c-1.6,0.8-3.3,1.2-5.1,1.2c-3,0-5.2-0.8-6.7-2.5
		c-1.5-1.6-2.2-4-2.2-7.1V36.8h9.6v15.3c0,1.1,0.3,2,0.8,2.6c0.6,0.7,1.4,1,2.4,1c1.2,0,2.2-0.4,2.9-1.2s1.1-1.7,1.1-2.8V36.8h9.6
		v25.4C265.8,62.2,257.9,62.2,257.9,62.2z"/>
	<path class="st0" d="M271.9,62.2V27.3h9.6v34.9H271.9z"/>
	<path class="st0" d="M331,30.1c1.4,0.7,2.5,1.7,3.3,2.9c0.8,1.3,1.2,2.7,1.2,4.2c0,4.1-1.8,6.7-5.5,7.7v0.2c4.2,1,6.3,3.7,6.3,8.3
		c0,1.7-0.4,3.3-1.3,4.6s-2,2.4-3.5,3.1s-3.1,1.1-4.9,1.1h-22.3V29.1h22.1C328.1,29.1,329.6,29.4,331,30.1z M315,42h7.3
		c0.7,0,1.3-0.2,1.8-0.7s0.7-1.1,0.7-1.9v-0.5c0-0.7-0.2-1.3-0.7-1.8s-1.1-0.7-1.7-0.7h-7.3L315,42L315,42z M315,54.5h8.1
		c0.7,0,1.3-0.2,1.8-0.7s0.7-1.1,0.7-1.9v-0.5c0-0.7-0.2-1.4-0.7-1.9s-1.1-0.7-1.8-0.7H315V54.5z"/>
	<path class="st0" d="M341.5,33.8v-6.5h9.6v6.5H341.5z M341.5,62.2V36.8h9.6v25.4C351.1,62.2,341.5,62.2,341.5,62.2z"/>
	<path class="st0" d="M374.2,36.8v6.5h-5.4V53c0,1.2,0.2,2,0.6,2.5s1.1,0.8,2.1,0.8h2.7v5.6c-0.8,0.3-1.8,0.5-3,0.6
		c-1.2,0.2-2.3,0.2-3.2,0.2c-2.8,0-5-0.5-6.5-1.5s-2.3-2.8-2.3-5.3V43.3h-3.6v-6.5h4l2.1-7.7h7.1v7.7H374.2z"/>
	<path class="st0" d="M402.4,39.5c2.5,2.2,3.7,5.5,3.7,10v1.6H387c0,1.8,0.4,3.2,1.2,4.1c0.8,0.9,2.1,1.4,3.9,1.4
		c1.6,0,2.8-0.3,3.5-1c0.8-0.7,1.1-1.6,1.1-2.7h9.3c0,3.1-1.2,5.5-3.5,7.2s-5.8,2.6-10.3,2.6c-4.7,0-8.4-1.1-11-3.3s-3.9-5.5-3.9-10
		c0-4.4,1.3-7.7,3.8-9.9s6-3.4,10.5-3.4C396.4,36.2,400,37.3,402.4,39.5z M387.1,46.6h9.3c0-1.3-0.4-2.4-1.1-3.1
		c-0.8-0.8-1.8-1.2-3.2-1.2C389.1,42.3,387.4,43.8,387.1,46.6z"/>
	<path class="st0" d="M431.5,38.2c2.4,1.3,3.5,3.4,3.5,6.2h-8.9c0-0.9-0.4-1.6-1.3-2c-0.6-0.3-1.3-0.5-2.2-0.5
		c-2.3,0-3.5,0.5-3.5,1.6c0,0.6,0.4,1,1.2,1.3c0.8,0.3,2.1,0.5,4,0.8c2.2,0.3,4.1,0.7,5.6,1.1c1.5,0.4,2.8,1.2,4,2.3
		c1.1,1.1,1.7,2.7,1.7,4.7c0,3.2-1.2,5.6-3.6,6.9c-2.4,1.4-5.6,2.1-9.5,2.1c-2.2,0-4.4-0.3-6.4-0.9c-2-0.6-3.6-1.6-4.9-2.9
		c-1.3-1.3-1.9-3-1.9-5h8.9v0.2c0,1.1,0.5,1.9,1.4,2.3c0.9,0.4,1.8,0.7,2.8,0.7c2.7,0,4-0.6,4-1.9c0-0.6-0.4-1.1-1.3-1.4
		c-0.8-0.3-2.2-0.6-4.1-0.9c-2.3-0.4-4.2-0.8-5.6-1.3c-1.5-0.4-2.7-1.2-3.8-2.3c-1.1-1.1-1.6-2.6-1.6-4.5c0-3.1,1.2-5.3,3.5-6.6
		c2.4-1.3,5.4-2,9.2-2C426.2,36.2,429.1,36.9,431.5,38.2z"/>
</g>
<g>
	<g id="XMLID_12660_">
		<path id="XMLID_12661_" class="st1" d="M78.3,36.4c0-0.2,0-0.3,0-0.5c-0.2,0-0.5,0.2-0.7,0.2c-1.2,0.2-2.4,0.2-3.6-0.3
			c-3.9-1.4-7.8-5.8-6.5-9.7c0.2-0.5-0.3-1-0.2-1.5c-1,0-2,0-3.1-0.3c-2.4-0.9-4.1-2.7-4.8-4.9c-0.3-1-0.5-2-0.3-3.2
			c-1.4,1.5-1.5,2.4-3.4,2.7c-1.2,0.2-2.6,0-3.7-0.3c-4.4-1.5-6.8-6.6-5.1-11.4c0.2-0.3,0.2-0.7,0.3-1l0,0c-18.7-4-36.9,6.5-43,25.1
			c-7,20.2,3.9,42,24,48.8c2.9,1,6,1.7,8.8,1.9c17.3,1.5,34-8.8,39.8-26C79.1,49.5,79.5,42.8,78.3,36.4z M52.6,47.8
			c-1.7,5.3-6.6,8.5-11.7,8.7c-1.5,0-3.1-0.2-4.4-0.7c-6.6-2.2-10.4-9.5-8-16.3c2.2-6.6,9.5-10.4,16.3-8l0,0
			C51.3,33.8,54.8,41.1,52.6,47.8z"/>
	</g>
	<path class="st2" d="M78.6,38.7C67.8,55.2,49.9,73.4,23.2,78c1.5,0.9,3.2,1.5,4.9,2c2.9,1,6,1.7,8.8,1.9c17.3,1.5,34-8.8,39.8-26
		C78.8,50.3,79.3,44.4,78.6,38.7z"/>
	<g id="XMLID_12651_">
		<path id="XMLID_12658_" class="st3" d="M78.5,32.1c-0.2,0-0.5,0.2-0.7,0.2c0.2,0.2,0.5,0.2,0.7,0.3C78.6,32.5,78.6,32.3,78.5,32.1
			z"/>
		<g id="XMLID_12654_">
			<path id="XMLID_12655_" class="st4" d="M78.6,32.5c-0.3-0.2-0.5-0.2-0.7-0.3c-1.2,0.2-2.4,0.2-3.6-0.3c-3.9-1.4-6.1-5.8-4.8-9.7
				c0.2-0.5,0.5-1,0.7-1.5c-1,0.2-2,0-3.1-0.3c-2.4-0.9-4.1-2.7-4.8-4.9c-0.3-1-0.5-2-0.3-3.2c-1.4,1.5-3.2,2.4-5.1,2.7
				c-1.2,0.2-2.6,0-3.7-0.3c-4.4-1.5-6.8-6.6-5.1-11.4c0.2-0.3,0.2-0.7,0.3-1C31.4,0.7,14.7,11,8.9,28.2C2.1,48.3,13,70,33.1,76.8
				c1.5,0.5,34.4,7.8,44.2-24.8C79.3,45.5,79.8,38.9,78.6,32.5z M53,43.8c-1.7,5.3-6.6,8.5-11.7,8.7c-1.5,0-3.1-0.2-4.4-0.7
				c-6.6-2.2-10.4-9.5-8-16.3c2.2-6.6,9.5-10.4,16.3-8l0,0C51.8,29.9,55.3,37.2,53,43.8z"/>
		</g>
	</g>
	<path id="XMLID_20_" class="st3" d="M78.5,32.1c-0.2,0-0.5,0.2-0.7,0.2c0.2,0.2,0.5,0.2,0.7,0.3C78.6,32.5,78.6,32.3,78.5,32.1z"/>
	<path class="st5" d="M79.3,37.9c-9.9,15-25.3,31.8-48.1,38.3c0.7,0.2,1.2,0.5,1.9,0.7c1.5,0.5,34.4,7.8,44.2-24.8
		C78.8,47.4,79.5,42.5,79.3,37.9z"/>
	<path class="st6" d="M45,9.7V5.9c-0.3,0-0.5,0-0.9,0C25.6,5.9,10.4,21,10.4,39.6c0,7.7,2.6,14.8,7,20.4C14.5,55.1,13,49.3,13,43.2
		C13,25.1,27.1,10.5,45,9.7z"/>
	<rect x="21.2" y="48.9" transform="matrix(0.9237 -0.3832 0.3832 0.9237 -18.2898 12.4872)" class="st7" width="2" height="6.5"/>
	
		<rect x="56" y="16.8" transform="matrix(8.700214e-02 -0.9962 0.9962 8.700214e-02 32.0311 75.0638)" class="st7" width="2" height="6.5"/>
	<rect x="15.7" y="32.1" transform="matrix(0.8463 -0.5327 0.5327 0.8463 -14.7221 15.1907)" class="st8" width="6.5" height="2"/>
	<rect x="66.9" y="49" transform="matrix(0.3894 -0.9211 0.9211 0.3894 -6.604 94.4468)" class="st7" width="2" height="6.5"/>
	<rect x="34.4" y="13.1" transform="matrix(0.4841 -0.875 0.875 0.4841 3.9386 39.4717)" class="st9" width="2" height="6.5"/>
	<rect x="55.2" y="60.7" transform="matrix(0.7236 -0.6903 0.6903 0.7236 -28.5923 56.4718)" class="st8" width="2" height="6.5"/>
	<rect x="32.2" y="63.4" transform="matrix(0.8463 -0.5327 0.5327 0.8463 -28.8698 28.7745)" class="st9" width="6.5" height="2"/>
	<rect x="62.8" y="36.4" transform="matrix(0.8463 -0.5327 0.5327 0.8463 -9.7754 40.9361)" class="st8" width="6.5" height="2"/>
</g>
</svg>
