<?xml version="1.0" encoding="utf-8"?>
<!-- Generator: Adobe Illustrator 26.1.0, SVG Export Plug-In . SVG Version: 6.00 Build 0)  -->
<svg version="1.1" id="Capa_1" xmlns="http://www.w3.org/2000/svg" xmlns:xlink="http://www.w3.org/1999/xlink" x="0px" y="0px"
	 viewBox="0 0 1297 1280.7" style="enable-background:new 0 0 1297 1280.7;" xml:space="preserve">
<style type="text/css">
	.st0{fill:#F1D130;}
	.st1{fill:#E2BF2D;}
</style>
<path class="st0" d="M113.8,526.3c68.2,24,105.9,73.4,112.1,151.6c8.3,105.2-188.1,280.2-63.9,460.2
	c42.4,61.5,139.2,136.6,238.3,116c90-18.7,293.4-37.5,380.8-5.9c278.7,50.8,339.9-116,371-188.3c84.7-196.8,267.4-763.2-77.6-953.9
	c-168.4-93-620-122.4-817.8-30.1C209.1,98.1,202.7,88,109.4,180.3C-1.2,289.9-16.1,480.7,113.8,526.3z"/>
<path class="st1" d="M-916.7,304.7H-149v768c0,0-333-5-439.5-36.9C-878,952.7-917,1002.5-917,1002.5L-916.7,304.7z"/>
</svg>
